<svg height="512pt" viewBox="0 0 512 512" width="512pt" xmlns="http://www.w3.org/2000/svg"><path d="m155.488281 187.175781c20.859375 0 41.898438 13.128907 41.898438 37.222657 0 39.023437-55.566407 51.792968-55.566407 68.15625v1.621093h47.113282c4.496094 0 8.453125 5.574219 8.453125 12.046875s-3.957031 12.40625-8.453125 12.40625h-64.019532c-5.035156 0-12.226562-3.414062-12.226562-8.628906v-17.445312c0-28.234376 56.644531-44.417969 56.644531-67.257813 0-5.753906-3.59375-12.765625-13.664062-12.765625-7.195313 0-13.488281 3.59375-13.488281 13.488281 0 5.214844-5.574219 10.25-14.746094 10.25-7.191406 0-12.589844-3.238281-12.589844-14.566406 0-21.941406 20.144531-34.527344 40.644531-34.527344zm0 0" fill="#ff8e7a"/><path d="m256.1875 290.9375h-42.078125c-5.214844 0-9.351563-3.417969-9.351563-9.710938 0-1.4375.359376-3.417968 1.4375-5.394531l41.542969-81.464843c2.695313-5.214844 7.191407-7.191407 11.6875-7.191407 4.855469 0 14.027344 4.136719 14.027344 10.609375 0 1.078125-.359375 2.160156-.898437 3.417969l-31.828126 63.839844h15.464844v-12.589844c0-5.933594 7.011719-8.453125 14.023438-8.453125 7.015625 0 14.027344 2.519531 14.027344 8.453125v12.589844h7.734374c5.753907 0 8.632813 6.472656 8.632813 12.945312 0 6.476563-4.316406 12.949219-8.632813 12.949219h-7.734374v19.0625c0 5.753906-7.011719 8.632812-14.027344 8.632812-7.011719 0-14.023438-2.878906-14.023438-8.632812v-19.0625zm0 0" fill="#ff8e7a"/><g fill="#ff5c42"><path d="m291.976562 265.042969h-7.734374v-12.589844c0-5.933594-7.015626-8.453125-14.027344-8.453125-7.015625 0-14.027344 2.519531-14.027344 8.453125v12.589844h-.304688v25.894531h.304688v19.0625c0 5.753906 7.015625 8.632812 14.027344 8.632812 7.011718 0 14.027344-2.878906 14.027344-8.632812v-19.0625h7.734374c4.3125 0 8.628907-6.472656 8.628907-12.949219 0-6.472656-2.875-12.945312-8.628907-12.945312zm0 0"/><path d="m273.453125 197.785156c0-6.472656-9.171875-10.609375-14.027344-10.609375-1.191406 0-2.382812.144531-3.542969.445313v47.015625l16.667969-33.433594c.542969-1.257813.902344-2.339844.902344-3.417969zm0 0"/><path d="m343.402344 310c0 4.316406-6.472656 8.632812-14.027344 8.632812-8.089844 0-13.84375-4.316406-13.84375-8.632812v-117.429688c0-5.035156 5.753906-8.453124 13.84375-8.453124 7.554688 0 14.027344 3.417968 14.027344 8.453124v53.050782c3.238281-7.015625 11.148437-13.667969 22.300781-13.667969 16.363281 0 30.570313 17.085937 30.570313 37.765625v40.28125c0 5.753906-7.015626 8.632812-14.027344 8.632812-6.472656 0-13.847656-2.878906-13.847656-8.632812v-40.28125c0-6.835938-5.933594-13.488281-12.945313-13.488281-5.9375 0-12.050781 5.035156-12.050781 13.488281zm0 0"/></g><path d="m256.5 512c-51.128906.003906-100.628906-15.15625-143.191406-43.839844-43.640625-29.414062-76.710938-71.019531-95.636719-120.320312-15.855469-41.300782-20.761719-86.121094-14.191406-129.617188 6.363281-42.160156 23.332031-82.433594 49.0625-116.46875 4.992187-6.601562 14.390625-7.910156 20.992187-2.917968 6.601563 4.992187 7.90625 14.390624 2.917969 20.992187-22.730469 30.066406-37.714844 65.636719-43.335937 102.871094-5.796876 38.375-1.460938 77.933593 12.539062 114.398437 16.707031 43.527344 45.894531 80.25 84.402344 106.207032 37.667968 25.382812 81.445312 38.808593 126.703125 38.722656h.019531c8.265625 0 14.976562 6.695312 14.984375 14.96875.011719 8.277344-6.691406 14.992187-14.96875 15.003906-.097656 0-.203125 0-.296875 0zm0 0" fill="#c9dff7"/><path d="m255.769531 511.535156c-8.277343 0-14.988281-6.710937-14.988281-14.984375 0-8.277343 6.710938-14.988281 14.988281-14.988281 60.308594 0 117.011719-23.488281 159.660157-66.132812 42.644531-42.648438 66.132812-99.351563 66.132812-159.660157 0-60.3125-23.488281-117.015625-66.132812-159.664062-42.648438-42.644531-99.351563-66.132813-159.660157-66.132813-8.277343 0-14.988281-6.710937-14.988281-14.984375 0-8.277343 6.710938-14.988281 14.988281-14.988281 68.316407 0 132.542969 26.605469 180.851563 74.910156 48.308594 48.308594 74.914062 112.539063 74.914062 180.859375 0 68.316407-26.605468 132.546875-74.914062 180.855469-48.308594 48.304688-112.535156 74.910156-180.851563 74.910156zm0 0" fill="#9ebbdb"/><path d="m79.199219 166.589844c-7.027344 0-13.300781-4.972656-14.695313-12.132813l-6.421875-33.039062-33.039062 6.421875c-8.121094 1.578125-15.988281-3.726563-17.570313-11.851563-1.578125-8.125 3.726563-15.992187 11.855469-17.570312l47.746094-9.28125c8.125-1.574219 15.992187 3.726562 17.570312 11.851562l9.28125 47.75c1.582031 8.125-3.722656 15.992188-11.847656 17.570313-.964844.1875-1.929687.28125-2.878906.28125zm0 0" fill="#9ebbdb"/><path d="m255.769531 70.34375c-8.277343 0-14.988281-6.710938-14.988281-14.984375v-40.359375c0-8.273438 6.710938-14.984375 14.988281-14.984375 8.273438 0 14.984375 6.710937 14.984375 14.984375v40.359375c0 8.273437-6.710937 14.984375-14.984375 14.984375zm0 0" fill="#82a0d2"/><path d="m255.769531 511.519531c-8.277343 0-14.988281-6.707031-14.988281-14.984375v-40.355468c0-8.277344 6.710938-14.988282 14.988281-14.988282 8.273438 0 14.984375 6.710938 14.984375 14.988282v40.355468c0 8.277344-6.710937 14.984375-14.984375 14.984375zm0 0" fill="#82a0d2"/><path d="m255.882812 441.199219v70.316406c8.222657-.0625 14.871094-6.742187 14.871094-14.980469v-40.355468c0-8.238282-6.648437-14.917969-14.871094-14.980469zm0 0" fill="#5877a6"/><path d="m255.882812.0195312v70.3203128c8.222657-.066406 14.871094-6.746094 14.871094-14.980469v-40.359375c0-8.234375-6.648437-14.9179688-14.871094-14.9804688zm0 0" fill="#5877a6"/><path d="m55.34375 270.753906h-40.355469c-8.277343 0-14.988281-6.710937-14.988281-14.984375 0-8.277343 6.710938-14.988281 14.988281-14.988281h40.359375c8.273438 0 14.984375 6.710938 14.984375 14.988281 0 8.273438-6.710937 14.984375-14.988281 14.984375zm0 0" fill="#82a0d2"/><path d="m496.550781 270.753906h-40.359375c-8.277344 0-14.988281-6.710937-14.988281-14.984375 0-8.277343 6.710937-14.988281 14.988281-14.988281h40.359375c8.273438 0 14.984375 6.710938 14.984375 14.988281 0 8.273438-6.710937 14.984375-14.984375 14.984375zm0 0" fill="#5877a6"/></svg>