<?xml version="1.0"?>
<svg xmlns="http://www.w3.org/2000/svg" id="Out_line" data-name="Out line" viewBox="0 0 512 512" width="512" height="512"><path d="M418.34326,93.65674A7.99877,7.99877,0,0,0,424,96h72V80H427.314L389.65674,42.34326A7.99877,7.99877,0,0,0,384,40H360V24a7.99977,7.99977,0,0,0-8-8H136a7.99977,7.99977,0,0,0-8,8V168a7.99977,7.99977,0,0,0,8,8h89.37622A23.99123,23.99123,0,0,0,248,208H368a7.99908,7.99908,0,0,0,2.52979-.41064L417.29834,192H496V176H416a7.99908,7.99908,0,0,0-2.52979.41064L366.70166,192H248a8,8,0,0,1,0-16H352a7.99977,7.99977,0,0,0,8-8V88h16V72H360a24.04118,24.04118,0,0,1-22.62891-16h43.315ZM344,84.65009V160H144V32H344v8H328a7.99977,7.99977,0,0,0-8,8A40.05181,40.05181,0,0,0,344,84.65009Z"/><path d="M328,224H104a7.99977,7.99977,0,0,0-8,8V356.68628L76.686,376H16v16H80a7.99877,7.99877,0,0,0,5.65674-2.34326L123.314,352h43.31495A24.04118,24.04118,0,0,1,144,368H128v16h16a39.79083,39.79083,0,0,0,24-8.02185V376h88a8,8,0,0,1,0,16H184v16h88a8,8,0,0,1,0,16H184v16h80a8,8,0,0,1,0,16H184v16h72a8,8,0,0,1,0,16H137.29834L90.52979,472.41064A7.99908,7.99908,0,0,0,88,472H16v16H86.70166l46.76855,15.58936A7.99908,7.99908,0,0,0,136,504H256a23.98263,23.98263,0,0,0,20.89935-35.7771A24.1771,24.1771,0,0,0,281.86945,464H328a7.99977,7.99977,0,0,0,8-8V232A7.99977,7.99977,0,0,0,328,224Zm-96,16v48H200V240Zm88,208H288a23.84418,23.84418,0,0,0-3.10052-11.77734,23.98531,23.98531,0,0,0-6.59614-43.37683A23.98519,23.98519,0,0,0,256,360H180.65009A39.76008,39.76008,0,0,0,184,344a7.99977,7.99977,0,0,0-8-8H120a7.99877,7.99877,0,0,0-5.65674,2.34326L112,340.68652V240h72v56a7.99977,7.99977,0,0,0,8,8h48a7.99977,7.99977,0,0,0,8-8V240h72Z"/><path d="M168,96h32a7.99977,7.99977,0,0,0,8-8V56a7.99977,7.99977,0,0,0-8-8H168a7.99977,7.99977,0,0,0-8,8V88A7.99977,7.99977,0,0,0,168,96Zm8-32h16V80H176Z"/><rect x="160" y="104" width="32" height="16"/><rect x="208" y="104" width="32" height="16"/><rect x="160" y="128" width="48" height="16"/><rect x="256" y="104" width="32" height="16"/><rect x="240" y="48" width="40" height="16"/><circle cx="304" cy="56" r="8"/></svg>
