<svg height="512" viewBox="0 0 60 58" width="512" xmlns="http://www.w3.org/2000/svg"><g id="Page-1" fill="none" fill-rule="evenodd"><g id="069---Online-Pricing" fill-rule="nonzero"><path id="Shape" d="m59 5v5h-58v-5c0-2.209139 1.790861-4 4-4h50c2.209139 0 4 1.790861 4 4z" fill="#607d8b"/><path id="Shape" d="m55 1h-3c2.209139 0 4 1.790861 4 4v5h3v-5c0-2.209139-1.790861-4-4-4z" fill="#37474f"/><path id="Shape" d="m59 10v33c0 2.209139-1.790861 4-4 4h-4.01l3.31-3.31c.9301447-.9385909.9301447-2.4514091 0-3.39l-18.72-18.72c-.372279-.3771767-.8800436-.5896456-1.41-.59h-13.18c-1.1032019.0032948-1.9967052.8967981-2 2v13.18c.0003544.5299564.2128233 1.037721.59 1.41l9.42 9.42h-24c-2.209139 0-4-1.790861-4-4v-33z" fill="#f5f5f5"/><path id="Shape" d="m18.99 36.17v-13.18c.0032948-1.1032019.8967981-1.9967052 2-2h-3c-1.1032019.0032948-1.9967052.8967981-2 2v13.18c.0003544.5299564.2128233 1.037721.59 1.41l9.42 9.42h3l-9.42-9.42c-.3771767-.372279-.5896456-.8800436-.59-1.41z" fill="#cfd8dc"/><path id="Shape" d="m56 10v33c0 2.209139-1.790861 4-4 4h3c2.209139 0 4-1.790861 4-4v-33z" fill="#cfd8dc"/><path id="Shape" d="m54.3 40.3-18.72-18.72c-.372279-.3771767-.8800436-.5896456-1.41-.59h-13.18c-1.1032019.0032948-1.9967052.8967981-2 2v13.18c.0003544.5299564.2128233 1.037721.59 1.41l9.42 9.42 9.3 9.3c.9385909.9301447 2.4514091.9301447 3.39 0l12.61-12.61c.9301447-.9385909.9301447-2.4514091 0-3.39zm-6.01 2.4-7.59 7.59c-.3900375.3877236-1.0199625.3877236-1.41 0l-10.59-10.59c-.3877236-.3900375-.3877236-1.0199625 0-1.41l7.59-7.59c.3900375-.3877236 1.0199625-.3877236 1.41 0l10.59 10.59c.3877236.3900375.3877236 1.0199625 0 1.41z" fill="#02a9f4"/><path id="Shape" d="m35.495 31.495-.795-.795c-.3900375-.3877236-1.0199625-.3877236-1.41 0l-7.59 7.59c-.3877236.3900375-.3877236 1.0199625 0 1.41l10.59 10.59c.3900375.3877236 1.0199625.3877236 1.41 0l.795-.8-9.795-9.79c-.3877236-.3900375-.3877236-1.0199625 0-1.41z" fill="#0377bc"/><path id="Shape" d="m54.3 40.3-18.72-18.72c-.372279-.3771767-.8800436-.5896456-1.41-.59h-3c.5299564.0003544 1.037721.2128233 1.41.59l18.72 18.72c.9301447.9385909.9301447 2.4514091 0 3.39l-12.61 12.61c-.0636373.0563919-.1304104.1091427-.2.158.9508322.771236 2.3297669.7031511 3.2-.158l12.61-12.61c.9301447-.9385909.9301447-2.4514091 0-3.39z" fill="#0377bc"/><rect id="Rectangle-path" fill="#ffdc00" height="16.971" rx=".997" transform="matrix(.707 -.707 .707 .707 -17.359 39.081)" width="12.728" x="32.132" y="32.009"/><path id="Shape" d="m48.29 41.29-10.59-10.59c-.3900375-.3877236-1.0199625-.3877236-1.41 0l-.8.795 9.8 9.8c.3877236.3900375.3877236 1.0199625 0 1.41l-6.8 6.795.8.8c.3900375.3877236 1.0199625.3877236 1.41 0l7.59-7.59c.1893127-.1877666.2957983-.4433625.2957983-.71s-.1064856-.5222334-.2957983-.71z" fill="#fec108"/><circle id="Oval" cx="25.994" cy="27.994" fill="#f5f5f5" r="2"/><circle id="Oval" cx="5" cy="6" fill="#f44335" r="1"/><circle id="Oval" cx="9" cy="6" fill="#ffdc00" r="1"/><circle id="Oval" cx="13" cy="6" fill="#60a917" r="1"/><g fill="#000"><path id="Shape" d="m27 7h6c.5522847 0 1-.44771525 1-1s-.4477153-1-1-1h-6c-.5522847 0-1 .44771525-1 1s.4477153 1 1 1z"/><path id="Shape" d="m44 7h11c.5522847 0 1-.44771525 1-1s-.4477153-1-1-1h-11c-.5522847 0-1 .44771525-1 1s.4477153 1 1 1z"/><path id="Shape" d="m55 0h-50c-2.76005315.00330612-4.99669388 2.23994685-5 5v38c.00330612 2.7600532 2.23994685 4.9966939 5 5h23.586l9 9c.6378529.639361 1.5038728.9986772 2.407.9986772s1.7691471-.3593162 2.407-.9986772l9-9h3.6c2.7600532-.0033061 4.9966939-2.2399468 5-5v-38c-.0033061-2.76005315-2.2399468-4.99669388-5-5zm-50 2h50c1.6568542 0 3 1.34314575 3 3v4h-56v-4c0-1.65685425 1.34314575-3 3-3zm35.984 53.59c-.262555.2625818-.6186722.410101-.99.410101s-.727445-.1475192-.99-.410101l-9.3-9.3-9.419-9.419c-.1868109-.1879855-.2920728-.4419793-.293-.707v-13.17c0-.5522847.4477153-1 1-1h13.174c.2650207.0009272.5190145.1061891.707.293l18.717 18.713c.2625818.262555.410101.6186722.410101.99s-.1475192.727445-.410101.99zm14.016-9.59h-1.6l1.6-1.6c1.3275652-1.3277453 1.3275652-3.4802547 0-4.808l-18.713-18.719c-.5613492-.5643349-1.3250204-.880821-2.121-.879h-13.172c-1.6568542 0-3 1.3431458-3 3v13.172c-.001821.7959796.3146651 1.5596508.879 2.121l7.713 7.713h-21.586c-1.65685425 0-3-1.3431458-3-3v-32h56v32c0 1.6568542-1.3431458 3-3 3z"/><path id="Shape" d="m15 13h-4c-.5522847 0-1 .4477153-1 1s.4477153 1 1 1h4c.5522847 0 1-.4477153 1-1s-.4477153-1-1-1z"/><path id="Shape" d="m49 13h-4c-.5522847 0-1 .4477153-1 1s.4477153 1 1 1h4c.5522847 0 1-.4477153 1-1s-.4477153-1-1-1z"/><path id="Shape" d="m41 13h-22c-.5522847 0-1 .4477153-1 1s.4477153 1 1 1h22c.5522847 0 1-.4477153 1-1s-.4477153-1-1-1z"/><path id="Shape" d="m38.408 29.994c-.7809997-.7807639-2.0470003-.7807639-2.828 0l-7.586 7.586c-.7807639.7809997-.7807639 2.0470003 0 2.828l10.586 10.586c.7809997.7807639 2.0470003.7807639 2.828 0l7.586-7.586c.7807639-.7809997.7807639-2.0470003 0-2.828zm1.586 19.586-10.586-10.586 7.586-7.586 10.587 10.585z"/><path id="Shape" d="m28.994 27.994c0-1.6568542-1.3431458-3-3-3s-3 1.3431458-3 3 1.3431458 3 3 3 3-1.3431458 3-3zm-3 1c-.5522847 0-1-.4477153-1-1s.4477153-1 1-1 1 .4477153 1 1-.4477153 1-1 1z"/><path id="Shape" d="m33.287 40.7c.3904999.3903819 1.0235001.3903819 1.414 0l4-4c.3789722-.3923789.3735524-1.0160848-.0121814-1.4018186s-1.0094397-.3911536-1.4018186-.0121814l-4 4c-.3903819.3904999-.3903819 1.0235001 0 1.414z"/><path id="Shape" d="m36.287 43.7c.3904999.3903819 1.0235001.3903819 1.414 0l4-4c.3789722-.3923789.3735524-1.0160848-.0121814-1.4018186s-1.0094397-.3911536-1.4018186-.0121814l-4 4c-.3903819.3904999-.3903819 1.0235001 0 1.414z"/><path id="Shape" d="m39.287 46.7c.3904999.3903819 1.0235001.3903819 1.414 0l4-4c.3789722-.3923789.3735524-1.0160848-.0121814-1.4018186s-1.0094397-.3911536-1.4018186-.0121814l-4 4c-.3903819.3904999-.3903819 1.0235001 0 1.414z"/><path id="Shape" d="m5 22h2c.55228475 0 1-.4477153 1-1s-.44771525-1-1-1h-2c-.55228475 0-1 .4477153-1 1s.44771525 1 1 1z"/><path id="Shape" d="m14 20h-3c-.5522847 0-1 .4477153-1 1s.4477153 1 1 1h3c.5522847 0 1-.4477153 1-1s-.4477153-1-1-1z"/><path id="Shape" d="m14 24h-9c-.55228475 0-1 .4477153-1 1s.44771525 1 1 1h9c.5522847 0 1-.4477153 1-1s-.4477153-1-1-1z"/><path id="Shape" d="m5 30h2c.55228475 0 1-.4477153 1-1s-.44771525-1-1-1h-2c-.55228475 0-1 .4477153-1 1s.44771525 1 1 1z"/><path id="Shape" d="m14 28h-3c-.5522847 0-1 .4477153-1 1s.4477153 1 1 1h3c.5522847 0 1-.4477153 1-1s-.4477153-1-1-1z"/><path id="Shape" d="m14 32h-9c-.55228475 0-1 .4477153-1 1s.44771525 1 1 1h9c.5522847 0 1-.4477153 1-1s-.4477153-1-1-1z"/></g></g></g></svg>